<?xml version="1.0" encoding="utf-8"?>
<!-- Generator: Adobe Illustrator 28.0.0, SVG Export Plug-In . SVG Version: 6.00 Build 0)  -->
<svg version="1.1" id="Layer_1" xmlns="http://www.w3.org/2000/svg" xmlns:xlink="http://www.w3.org/1999/xlink" x="0px" y="0px"
	 viewBox="0 0 1192.8 1192.8" style="enable-background:new 0 0 1192.8 1192.8;" xml:space="preserve">
<style type="text/css">
	.st0{fill:#A3C9EA;}
	.st1{fill:#FFFFFF;}
	.st2{fill:#A4CAEB;}
	.st3{fill:#2261AE;}
	.st4{fill:#44A3DB;}
</style>
<g id="Layer_1_00000020372485659646678470000006954529087023489445_">
</g>
<g id="Layer_2_00000119825417922817738410000003780023873548059567_">
</g>
<g id="Layer_3">
	<circle class="st0" cx="596.4" cy="596.4" r="596.4"/>
	<path class="st1" d="M851.2,260.4c-7.6,0-15.5,2.4-22.7,7.5L771.4,309l-50.7-36.5c-11-7.9-23.9-11.9-36.9-11.9
		c-12.9,0-25.7,3.9-36.8,11.9L596.3,309l-50.7-36.5c-11-7.9-24-11.9-36.9-11.9s-25.7,3.9-36.8,11.9L421.2,309l-56.8-41.1
		c-7.1-5.1-15-7.5-22.7-7.5c-20.3,0.1-39.2,16.1-39.2,39.2v593.6c0,22.7,18.8,39.1,39.2,39.1c7.6,0,15.5-2.4,22.7-7.5l57.1-41.1
		l50.7,36.5c11,7.9,23.9,11.9,36.9,11.9c12.9,0,25.7-3.9,36.8-11.9l50.7-36.5l50.7,36.5c11,7.9,24,11.9,36.9,11.9
		s25.7-3.9,36.8-11.9l50.7-36.5l57.1,41.1c7.1,5.1,15,7.5,22.7,7.5c20.3,0,39.1-16,39.1-39.1V299.6
		C890.5,276.8,871.7,260.4,851.2,260.4z"/>
	<path class="st2" d="M328,926.5c-16,0-28.9-12.9-28.9-28.9V298.1c0-16,12.9-28.9,28.9-28.9s28.9,12.9,28.9,28.9v599.5
		C356.9,913.5,344,926.5,328,926.5z"/>
	<path class="st3" d="M847.8,944.4c-11.5,0-22.7-3.7-32.2-10.6l-46.1-33.1l-39.8,28.7c-13.4,9.8-29.4,14.9-46,14.9
		c-16.3,0-32.6-5.3-46.1-14.9l-39.8-28.7L558,929.3c-13.4,9.8-29.4,14.9-46,14.9c-16.5,0-32.4-5.1-46.1-14.9l-39.8-28.7l-46.2,33.2
		c-9.7,6.9-20.8,10.5-32.1,10.5c-30.6,0-55.5-24.8-55.5-55.4v-79c0-9.4,7.6-17,17-17c9.4,0,17,7.6,17,17v79
		c0,13.2,11.2,21.4,21.5,21.4c4.2,0,8.5-1.4,12.4-4.2l65.9-47.4l59.6,43c7.8,5.6,16.9,8.5,26.3,8.5c9.4,0,18.4-2.9,26.1-8.5l59.7-43
		l59.6,43c7.7,5.5,17,8.5,26.3,8.5c9.4,0,18.4-2.9,26.1-8.5l59.7-43l66,47.5c3.8,2.8,8,4.1,12.4,4.1c10.5,0,21.4-8,21.4-21.4V306.5
		c0-7.4-3.3-12.3-6-15.1c-4.1-4.1-9.7-6.4-15.3-6.4c-4.2,0-8.5,1.4-12.4,4.2l-65.9,47.4l-59.6-43c-7.8-5.6-16.9-8.5-26.3-8.5
		c-9.4,0-18.4,2.9-26.1,8.5l-59.7,43l-59.6-43c-7.7-5.5-17-8.5-26.3-8.5c-9.4,0-18.4,2.9-26.1,8.5l-59.7,43l-66-47.5
		c-3.8-2.7-7.9-4.1-12.3-4.1c-10.6,0.1-21.6,8.2-21.6,21.5v342c0,9.4-7.6,17-17,17s-17-7.6-17-17v-342c0-15.4,6.1-29.6,17.1-40
		c10.3-9.7,24.2-15.4,38.3-15.5h0.1c11.5,0,22.7,3.7,32.2,10.6l46.1,33.1L466,266c13.4-9.8,29.4-14.9,46-14.9
		c16.3,0,32.6,5.3,46.1,14.9l39.8,28.7l39.8-28.6c13.4-9.8,29.4-14.9,46-14.9c16.5,0,32.4,5.1,46.1,14.9l39.8,28.7l46.2-33.2
		c9.7-6.9,20.8-10.5,32.1-10.5c14.7,0,29,6,39.4,16.5c10.4,10.4,16,24.3,15.9,39.1v582.4c0,15.4-6,29.6-17,40
		C876,938.8,862,944.4,847.8,944.4z M309.3,772.9c-9.4,0-17-7.6-17-17v-32.7c0-9.4,7.6-17,17-17s17,7.6,17,17v32.7
		C326.3,765.3,318.7,772.9,309.3,772.9z"/>
	<path class="st4" d="M681.4,498.4c1.9-4.4,2.2-9.6,0.8-14.2c-2-6.4-7-11.4-13.5-13.2c-1.8-0.6-3.6-1.1-5.6-1.6
		c-12.4-3.4-24.9-6.9-37.5-8.9c-3.5-0.5-7-1-10.6-1.2v-27.9c0-10.7-8.7-19.4-20.5-19.4c-9.6,0-19.4,8.7-19.4,19.4v29.2v0.6
		c-9.5,1.7-19.3,4.6-28.4,8.5c-14.9,6.4-28.8,16.4-37.7,29.8c-4.5,6.7-7.7,14.2-9.2,22.6c-2.7,14.6-1.1,27.9,4.9,39.8
		c2.9,5.8,6.8,10.9,11.2,15.3c4.3,4.3,8.9,7.9,13.7,10.9c17.9,11.5,42,18.3,62.8,23.2c5.2,1.1,11.4,2.7,17.9,4.7
		c14.5,4.6,30.2,11.3,40.3,18.2c23.6,16.3,12.8,44.5-9.6,53.6c-32.4,13.2-61.1,4.5-92.7-5c-13.1-4-35-16.4-45.7-1.5
		c-5.2,7.2-4.4,17.8,1.1,24.7c7.4,9.5,22.5,10.3,33.4,13.6c12.9,3.9,29.5,8.7,39.4,10.2v2.3v29.2c0,10.7,8.7,19.4,19.4,19.4
		s19.4-8.7,19.4-19.4v-29.2v-0.2c14.5-0.9,28.1-3.6,40.1-8.5c15.5-6.2,28.8-16.3,37.3-30.1c4.1-6.7,7.2-14.3,8.7-22.8
		c3.8-20.5-1.2-39.8-13.5-54.9c-4.3-5.1-9.2-9.8-15.2-13.8c-36.8-24.8-85.1-23.3-122.1-46.8c-28.5-18.1-5.2-41.4,15.9-50.4
		c32.7-13.9,60.3-5,92.6,3.1c0.6,0.1,1.2,0.2,1.7,0.4c0.1,0,0.2,0,0.4,0.1c0.6,0.1,1.1,0.1,1.7,0.2c0,0,0,0,0.1,0c0.6,0,1.1,0,1.7,0
		c0.2,0,0.5,0,0.6,0c0.4,0,0.7,0,1.1-0.1c0.2,0,0.5,0,0.7-0.1c0.4,0,0.7-0.1,1.1-0.2c0.2,0,0.5-0.1,0.6-0.1c0.4-0.1,0.9-0.2,1.2-0.4
		c0.1,0,0.4-0.1,0.5-0.1c0.5-0.1,1-0.4,1.6-0.6c0.2-0.1,0.5-0.2,0.7-0.4c0.2-0.1,0.6-0.2,0.9-0.5c0.2-0.1,0.5-0.2,0.7-0.4
		c0.2-0.1,0.5-0.4,0.7-0.5s0.5-0.4,0.7-0.5C678.2,503.3,679.7,500.6,681.4,498.4C681.3,498.5,681.4,498.5,681.4,498.4z"/>
	<path class="st3" d="M594.5,412c11.8,0,20.5,8.7,20.5,19.4v28c3.5,0.2,7,0.7,10.6,1.2c12.6,1.9,25.1,5.5,37.5,8.9
		c1.9,0.5,3.8,1,5.6,1.6c6.5,1.7,11.5,6.8,13.5,13.2c1.4,4.6,1.2,9.7-0.8,14.2c0,0.1,0,0.1-0.1,0.2c-1.6,2.1-3.1,4.8-5.5,6
		c-0.2,0.1-0.5,0.4-0.7,0.5s-0.5,0.4-0.7,0.5s-0.5,0.2-0.7,0.4s-0.6,0.4-0.9,0.5c-0.2,0.1-0.5,0.2-0.7,0.4c-0.6,0.2-1.1,0.5-1.6,0.6
		c-0.1,0-0.4,0.1-0.5,0.1c-0.4,0.1-0.9,0.2-1.2,0.4c-0.1,0-0.4,0.1-0.6,0.1c-0.4,0.1-0.7,0.2-1.1,0.2c-0.2,0.1-0.5,0.1-0.7,0.1
		c-0.4,0.1-0.7,0.1-1.1,0.1c-0.1,0-0.4,0-0.6,0c-0.6,0-1.1,0-1.7,0c-0.1,0-0.1,0-0.1,0c-0.6-0.1-1.1-0.1-1.7-0.2
		c-0.1-0.1-0.2-0.1-0.4-0.1c-0.5-0.1-1.1-0.2-1.7-0.4c-20.1-5-38.3-10.4-57.1-10.4c-11.4,0-23.1,2-35.5,7.3
		c-21.1,9-44.3,32.3-15.9,50.4c37,23.5,85.3,22,122.1,46.8c6,4,10.9,8.7,15.2,13.8c12.3,15.1,17.2,34.4,13.5,54.9
		c-1.6,8.5-4.6,16.2-8.7,22.8c-8.5,13.8-21.7,23.9-37.3,30.1c-12,4.9-25.6,7.7-40.1,8.5v0.2v29.2c0,10.7-8.7,19.4-19.4,19.4
		s-19.4-8.7-19.4-19.4v-29.2V730c-9.8-1.5-26.5-6.3-39.4-10.2c-10.9-3.3-26-4.2-33.4-13.6c-5.5-7-6.2-17.5-1.1-24.7
		c3.8-5.3,9-7.1,14.7-7.1c10.4,0,22.5,6.1,30.9,8.6c20,6.1,38.8,11.8,58.2,11.8c11.2,0,22.6-1.9,34.4-6.7
		c22.4-9.1,33.2-37.3,9.6-53.6c-10.1-6.9-25.9-13.6-40.3-18.2c-6.4-2.1-12.6-3.6-17.9-4.7c-20.8-4.9-44.9-11.7-62.8-23.2
		c-4.9-3-9.5-6.7-13.7-10.9c-4.4-4.4-8.3-9.5-11.2-15.3c-6-11.9-7.5-25.3-4.9-39.8c1.6-8.4,4.7-15.9,9.2-22.6
		c8.9-13.4,22.7-23.3,37.7-29.8c9.1-3.9,18.9-6.8,28.4-8.5v-0.6v-29.2C575,420.8,584.9,412,594.5,412 M594.5,380
		c-12.9,0-25.8,5.3-35.5,14.7c-10.1,9.7-15.9,23.1-15.9,36.8v5.3c-3,1.1-6,2.3-9,3.5H534h-0.1c-22.1,9.5-39.9,23.8-51.6,41.4
		c-7,10.4-11.7,22-14.1,34.4v0.1v0.1c-4,21.6-1.4,41.8,7.7,59.9c4.3,8.6,10.1,16.5,17.2,23.6c5.8,5.8,12.3,11,19.2,15.3
		c22.4,14.4,50.6,22.2,72.7,27.4l0.4,0.1l0.4,0.1c3.3,0.7,8.5,1.9,14.6,3.9c10.8,3.4,21.3,7.9,28.2,11.8c-7.2,2.9-14.3,4.3-22.2,4.3
		c-14.7,0-30.6-4.8-49-10.4c-1.4-0.4-3.6-1.3-6-2.1c-8.9-3.3-21-7.9-34.3-7.9c-16.8,0-31.2,7.2-40.7,20.4c-6.7,9.3-10.1,21-9.4,32.8
		c0.6,11,4.6,21.8,11.3,30.4c12.6,16.1,30.8,20.2,42.9,22.9c2.5,0.6,4.8,1.1,6.4,1.6c5.6,1.7,11.2,3.3,16.6,4.9v6.2
		c0,28.4,23.1,51.4,51.4,51.4c28.4,0,51.4-23.1,51.4-51.4v-1.8c7-1.7,13.6-3.8,20-6.4c22.7-9.1,40.9-23.9,52.6-43.1
		c6.3-10.3,10.7-21.6,13-33.8l0,0l0,0c5.4-29.6-1.7-58.3-20.1-80.9l-0.1-0.1l-0.1-0.1c-6.5-7.8-13.9-14.5-21.9-19.9
		c-23.3-15.7-49.2-22.6-72.1-28.6c-14.1-3.7-27.6-7.3-39.3-12.6c7.5-3.2,14.7-4.7,22.8-4.7c12.4,0,25.9,3.5,41.5,7.4
		c0.4,0.1,0.9,0.2,1.3,0.3l0.6,0.6l9.4,1.9l2.1,0.5h1l1.8,0.4h3.2h0.1h1.7h0.6c0.9,0,2.9,0,5.5-0.4c0.5-0.1,0.9-0.1,1.4-0.2h1.8
		l4.5-1.5h0.1l0,0c2.6-0.7,4.7-1.5,5.5-1.9l0,0l1.1-0.4l1.2-0.6l0.3-0.1c1-0.5,2.1-1,3-1.6c1.2-0.7,2.2-1.3,3-1.8c0,0,0.1,0,0.1-0.1
		c7.4-4.4,11.5-10.2,13.6-13.2c0.1-0.2,0.2-0.3,0.3-0.5l2.3-3l1.6-3.6l0.2-0.4c5-11.5,5.6-24.4,1.9-36.4
		c-5.2-16.7-18.1-29.5-34.7-34.3c-2.5-0.8-4.8-1.4-6.8-1.9l-1.6-0.4c-7.4-2-14.9-4.1-22.7-5.9v-0.7c0-14-5.6-27.1-15.7-36.8
		C621.5,385.2,608.4,380,594.5,380L594.5,380z"/>
</g>
<g id="Layer_4">
</g>
</svg>
