<?xml version="1.0" encoding="utf-8"?>
<!-- Generator: Adobe Illustrator 28.0.0, SVG Export Plug-In . SVG Version: 6.00 Build 0)  -->
<svg version="1.1" id="Layer_1" xmlns="http://www.w3.org/2000/svg" xmlns:xlink="http://www.w3.org/1999/xlink" x="0px" y="0px"
	 viewBox="0 0 1192.8 1192.8" style="enable-background:new 0 0 1192.8 1192.8;" xml:space="preserve">
<style type="text/css">
	.st0{fill:#A3C9EA;}
	.st1{fill:#FFFFFF;}
	.st2{fill:#A5C9EB;}
	.st3{fill:#45A3DB;}
	.st4{fill:#2261AE;}
</style>
<g id="Layer_1_00000097491606850149059410000001772674205539376797_" focusable="false">
</g>
<g id="Layer_2_00000096744597084841736610000009116101086989449150_">
	<circle class="st0" cx="596.4" cy="596.4" r="596.4"/>
	<path class="st1" d="M209.5,795.5c0,15.7,9.2,30,23.5,36.4c53.9,24.3,194.8,69.8,363.3-17.2c146.2-75.4,271.7-62.9,337.5-47
		c25.1,6.1,49.4-13,49.4-38.9V383.2c0-17.6-11.5-33.1-28.4-38.3c-57.2-17.5-194.8-43.2-358.5,41.2c-143.5,74-266.9,52-333.7,28.9
		c-26-9-53.1,10.3-53.1,37.8V795.5z"/>
	<path class="st2" d="M232.2,833.8c-16,0-29-13-29-29v-361c0-16,13-29,29-29s29,13,29,29v361C261.1,820.8,248.2,833.8,232.2,833.8z"
		/>
	<ellipse class="st3" cx="599.2" cy="602.7" rx="108.9" ry="118"/>
	<path class="st4" d="M596.8,737.7c-68,0-123.4-59.3-123.4-132.3s55.3-132.3,123.4-132.3c15.3,0,30.3,3,44.5,8.9
		c8.7,3.6,12.8,13.5,9.2,22.2s-13.5,12.8-22.2,9.2c-10-4.2-20.6-6.3-31.5-6.3c-49.3,0-89.4,44.1-89.4,98.4s40.1,98.4,89.4,98.4
		s89.4-44.1,89.4-98.4c0-13.4-2.4-26.5-7.2-38.7c-3.4-8.7,0.9-18.6,9.6-22c8.7-3.4,18.6,0.9,22,9.6c6.3,16.2,9.5,33.4,9.5,51
		C720.1,678.4,664.8,737.7,596.8,737.7z"/>
	<g>
		<path class="st4" d="M711.1,359.2c1.4,0,2.8-0.2,4.2-0.5c20-5.1,40.4-8.9,60.5-11.3c9.3-1.1,16-9.6,14.9-18.9
			c-1.1-9.3-9.6-16-18.9-14.9c-21.6,2.6-43.4,6.7-64.9,12.1c-9.1,2.3-14.6,11.6-12.3,20.7C696.6,354.1,703.5,359.2,711.1,359.2z"/>
		<path class="st4" d="M959.9,328.7c-21.9-6.7-57.5-15.2-102.5-17.8c-6.7-0.4-12.7,3.2-15.8,8.7c0,0.1-0.1,0.1-0.1,0.2
			c-0.1,0.2-0.3,0.5-0.4,0.7c-0.2,0.5-0.5,1-0.7,1.5c-5,12.9-7.5,26.6-7.5,40.5c0,62.2,50.6,112.8,112.8,112.8
			c7,0,13.8-0.6,20.6-1.9v153.9c-6.7-1.2-13.6-1.9-20.6-1.9c-62.2,0-112.8,50.6-112.8,112.8c0,0.2,0,0.3,0,0.5
			c-12.4-0.1-25.3,0.3-38.9,1.3c-69.7,5.2-138.8,25.2-205.4,59.6c-89.1,46-170.1,53.4-233.5,47c2.1-8.7,3.2-17.6,3.2-26.8
			c0-62.2-50.6-112.8-112.8-112.8c-6.4,0-12.8,0.5-19,1.6V558c6.2,1.1,12.6,1.6,19,1.6c60.3,0,109.7-47.5,112.6-107.1
			c13.6,1.2,27.9,1.8,42.9,1.5c68.9-1,137.3-18.8,203.2-52.8c15.6-8.1,31.6-15.4,47.5-21.8c8.7-3.5,12.9-13.4,9.5-22.1
			c-3.5-8.7-13.4-12.9-22.1-9.5c-16.9,6.8-33.9,14.5-50.5,23.1c-61.2,31.5-124.4,48-188.1,49c-56.6,0.8-103.2-11-132.3-21.1
			c-17.4-6-36.8-3.3-51.8,7.4s-23.9,28-23.9,46.4v342.7c0,22.4,13.2,42.8,33.5,51.9c31,14,91,35.2,168.7,35.2
			c60.8,0,132.4-13,209.5-52.8c62.5-32.3,127.3-51.1,192.4-55.9c57.3-4.3,104.1,3.3,133.3,10.4c17.1,4.1,34.8,0.3,48.6-10.6
			c13.8-10.9,21.8-27.2,21.8-44.8V383.2C1000.3,358,984,336.1,959.9,328.7z M245.5,739.6c44.3,0,80.3,36,80.3,80.3
			c0,7.6-1,15-3.1,22.1c-36.4-6.8-64.8-17.5-82.7-25.5c-8.2-3.7-13.5-11.9-13.5-20.9V742C232.7,740.4,239.1,739.6,245.5,739.6z
			 M245.5,527.1c-6.5,0-12.8-0.8-19-2.3v-72c0-7.5,3.5-14.4,9.6-18.7c6.2-4.4,13.8-5.5,20.9-3c17.5,6.1,40.9,12.7,68.7,17.3
			C324.9,491.9,289.2,527.1,245.5,527.1z M945.7,442.8c-44.3,0-80.3-36-80.3-80.3c0-5.7,0.6-11.3,1.8-16.9c36,3,64.5,10,82.7,15.5
			c9.8,3,16.3,11.8,16.3,22V440C959.6,441.9,952.7,442.8,945.7,442.8z M865.4,738.2c0-44.3,36-80.3,80.3-80.3c7,0,13.9,0.9,20.6,2.7
			v68.3c0,7.1-3.2,13.7-8.8,18.1c-5.6,4.4-12.7,5.9-19.5,4.3c-18.3-4.4-43-9-72.5-11.2C865.4,739.4,865.4,738.8,865.4,738.2z"/>
	</g>
</g>
</svg>
