<?xml version="1.0" encoding="utf-8"?>
<!-- Generator: Adobe Illustrator 28.0.0, SVG Export Plug-In . SVG Version: 6.00 Build 0)  -->
<svg version="1.1" id="Layer_1" focusable="false" xmlns="http://www.w3.org/2000/svg" xmlns:xlink="http://www.w3.org/1999/xlink"
	 x="0px" y="0px" viewBox="0 0 1192.8 1192.8" style="enable-background:new 0 0 1192.8 1192.8;" xml:space="preserve">
<style type="text/css">
	.st0{fill:#A4C9EB;}
	.st1{fill:#FFFFFF;}
	.st2{fill:#45A3DB;}
	.st3{fill:#A5C9EB;}
	.st4{fill:#2462AE;}
</style>
<circle class="st0" cx="596.4" cy="596.4" r="596.4"/>
<path class="st1" d="M954,763H238.8V580.6c0-52.5,42.6-95.1,95.1-95.1h525c52.5,0,95.1,42.6,95.1,95.1V763z"/>
<path class="st2" d="M330.5,482.1l39.1-134.9c11.1-41.7,48.9-70.7,92-70.7h264.8c40.8,0,77,25.9,90.2,64.5l51.5,139.6L330.5,482.1z"
	/>
<path class="st2" d="M338.6,898.4h-43.2c-27,0-48.8-21.9-48.8-48.8l1.9-86.5h140.9l-1.9,86.5C387.5,876.5,365.6,898.4,338.6,898.4z"
	/>
<path class="st2" d="M897.4,898.4h-43.2c-27,0-48.8-21.9-48.8-48.8l-1.9-86.5h140.9l1.9,86.5C946.2,876.5,924.3,898.4,897.4,898.4z"
	/>
<path class="st3" d="M459.8,639.3c0,28.6-28.3,34.4-63.3,34.4s-63.3-23.2-63.3-51.8s10.9-51.8,45.9-51.8
	C414,570,459.8,610.7,459.8,639.3z"/>
<path class="st3" d="M737.8,639.3c0,28.6,28.3,34.4,63.3,34.4c35,0,63.3-23.2,63.3-51.8s-10.9-51.8-45.9-51.8
	S737.8,610.7,737.8,639.3z"/>
<path class="st3" d="M926.1,718.5l-602.9-4.6c-22.1-0.1-40.2-17.6-41-39.7L281,540.1c-0.4-10.9-9.6-19.4-20.5-19s-19.4,9.6-19,20.5
	l3.6,197.7c0.4,10.9,9.6,19.4,20.5,19c1.7-0.1,3.3-0.3,4.9-0.8c2.9-0.9,5.5-2.4,7.7-4.4l657.9,1.8c2,0,3.9-0.3,5.7-0.8
	c8.2-2.4,4.1-7,4.1-15.9C945.9,727.4,937.1,718.5,926.1,718.5z"/>
<g>
	<path class="st4" d="M379,553c-39.9,0-62.9,25.1-62.9,68.8c0,38,36,68.8,80.3,68.8c23.2,0,39.1-2.4,51.6-7.9
		c18.5-8.1,28.7-23.6,28.7-43.5C476.8,600.6,422.9,553,379,553z M434.4,651.6c-7.7,3.4-20.1,5-38,5c-25.1,0-46.3-16-46.3-34.8
		c0-20.9,4.9-34.8,28.9-34.8c12.1,0,28.3,7.6,42.4,19.7c14.7,12.8,21.4,25.8,21.4,32.5C442.8,645.8,440.7,648.9,434.4,651.6z"/>
	<path class="st4" d="M818.6,553c-43.9,0-97.8,47.6-97.8,86.3c0,19.9,10.2,35.4,28.7,43.5c12.4,5.4,28.4,7.9,51.6,7.9
		c44.3,0,80.3-30.9,80.3-68.8C881.4,578.1,858.5,553,818.6,553z M801.1,656.7c-17.8,0-30.2-1.6-38-5c-6.3-2.7-8.4-5.9-8.4-12.3
		c0-6.7,6.7-19.8,21.4-32.5c14-12.2,30.2-19.7,42.4-19.7c17.3,0,28.9,5.9,28.9,34.8C847.4,640.7,826.2,656.7,801.1,656.7z"/>
	<path class="st4" d="M750.3,303.2c7.8,3.2,15,7.6,21.4,13.1c3.2,2.8,7.2,4.1,11.1,4.1c4.8,0,9.5-2,12.9-5.9
		c6.1-7.1,5.3-17.8-1.8-24c-9.1-7.9-19.4-14.2-30.6-18.8c-8.7-3.6-18.6,0.6-22.2,9.2S741.7,299.6,750.3,303.2z"/>
	<path class="st4" d="M971,762.9V580.6c0-56.4-41.8-103.1-96.1-110.9L837.4,368c-3.3-8.8-13-13.3-21.8-10.1
		c-8.8,3.3-13.3,13-10.1,21.8l32.8,88.7H414.1c-1.1-0.2-2.3-0.4-3.6-0.4c0,0,0,0-0.1,0c-26.3,0.1-47.4,0.2-63,0.2L380,355.6
		c0-0.1,0.1-0.2,0.1-0.4c9.1-34.2,40.2-58.1,75.6-58.1H701c9.4,0,17-7.6,17-17s-7.6-17-17-17H455.8c-50.7,0-95.3,34.2-108.4,83.2
		l-35.5,122.6c-3.1,0.6-5.6,1.8-7.6,3.4c-47.5,13-82.4,56.6-82.4,108.1v182.2L220,849v0.4c0,36.3,29.5,65.8,65.8,65.8H329
		c36.2,0,65.7-29.4,65.8-65.6l0.8-35.6c0.2-9.4-7.2-17.2-16.6-17.4c-9.4-0.2-17.2,7.2-17.4,16.6l-0.8,35.8v0.4
		c0,17.6-14.3,31.8-31.8,31.8h-43.2c-17.5,0-31.7-14.2-31.8-31.7l1.6-69.7h124.2h433.5h124.1l1.6,69.7
		c-0.1,17.5-14.3,31.7-31.8,31.7H864c-17.6,0-31.8-14.3-31.8-31.8v-0.2c0-0.2-0.3-20.4-0.6-35.6c-0.2-9.4-8-16.8-17.4-16.6
		s-16.8,8-16.6,17.4c0.3,14.5,0.6,33.6,0.6,35.2c0.1,36.2,29.6,65.7,65.8,65.7h43.2c36.3,0,65.8-29.5,65.8-65.8L971,762.9z
		 M813.1,746H379.7H255.8V580.6c0-43.1,35-78.1,78.1-78.1h525c43.1,0,78.1,35,78.1,78.1V746H813.1z"/>
</g>
</svg>
